<svg preserveAspectRatio="xMidYMid meet" data-bbox="47.499 83.002 105.003 33.999" viewBox="47.499 83.002 105.003 33.999" height="200" width="200" xmlns="http://www.w3.org/2000/svg" data-type="color" role="presentation" aria-hidden="true"><defs><style>#comp-js4ex0gm svg [data-color="1"] {fill: #10846F;}</style></defs>
    <g>
        <path d="M49.427 88.593c2.19-.202 3.483-1.009 4.678-1.817 1.393-1.009 2.886-1.514 4.578-1.514 2.289 0 3.384.707 4.578 1.514 1.294.808 2.787 1.817 5.673 1.817h.099c2.886 0 4.379-.909 5.673-1.817 1.294-.808 2.289-1.514 4.479-1.514 2.289 0 3.682.707 4.777 1.514 1.294.808 2.488 1.817 5.374 1.817h.1c1.692 0 3.384-.404 4.877-1.211.398-.202.697-.404.995-.606 1.194-.808 2.289-1.514 4.578-1.514s3.384.707 4.578 1.514c.299.202.597.404.995.606 1.493.808 3.284 1.211 4.976 1.211 2.886 0 4.379-1.009 5.673-1.817 1.194-.808 2.289-1.514 4.479-1.514 2.289 0 3.284.707 4.479 1.514 1.294.909 2.787 1.817 5.673 1.817h.1c2.886 0 4.379-1.009 5.673-1.817.796-.505 1.592-1.009 2.488-1.312 1.792-.505 4.18-.404 5.773.707l.896.606c1.095.808 2.389 1.615 4.678 1.817.823.073 2.155-.032 2.155-1.185 0-.591-.473-1.071-1.056-1.071-.97 0-1.901-.025-2.841-.356-.765-.269-1.453-.696-2.139-1.124-.697-.505-1.393-.909-2.289-1.211-.498-.202-.896-.303-1.493-.404-.597-.101-1.194-.202-1.891-.202-1.194 0-2.488.202-3.583.707-1.194.505-2.19 1.312-3.384 1.918-1.095.505-2.19.808-3.384.808-2.289 0-3.185-.808-4.479-1.615-1.294-.909-2.787-1.716-5.673-1.716s-4.578 1.009-5.872 1.817c-.597.404-1.194.808-1.891 1.11-2.389.909-4.777.101-6.867-1.211-.796-.505-1.592-1.01-2.389-1.312-1.792-.606-3.981-.707-5.773-.303-1.393.303-2.488.909-3.682 1.615-1.294.808-2.787 1.514-4.379 1.514s-2.986-.606-4.28-1.413c-1.294-.808-2.787-1.817-5.673-1.817s-4.379.909-5.673 1.817c-1.294.808-2.389 1.514-4.678 1.514-1.194 0-2.289-.202-3.384-.707-1.194-.606-2.289-1.514-3.583-2.019-3.085-1.312-6.37-.505-9.057 1.211-.796.505-1.592 1.01-2.588 1.211-.597.202-1.194.202-1.692.303-.498 0-1.095.101-1.294.707-.1.404 0 .909.398 1.211.399.202 1.096.202 1.494.202z" fill="#FF6614" data-color="1"></path>
        <path d="M49.427 102.787c2.19-.202 3.483-1.01 4.678-1.817 1.393-1.009 2.886-1.514 4.578-1.514 2.289 0 3.384.707 4.578 1.514 1.294.808 2.787 1.817 5.673 1.817h.099c2.886 0 4.379-.909 5.673-1.817 1.294-.808 2.289-1.514 4.479-1.514 2.289 0 3.682.707 4.777 1.514 1.294.808 2.488 1.817 5.374 1.817h.1c1.692 0 3.384-.404 4.877-1.211.398-.202.697-.404.995-.606 1.194-.808 2.289-1.514 4.578-1.514s3.384.707 4.578 1.514c.299.202.597.404.995.606 1.493.808 3.284 1.211 4.976 1.211 2.886 0 4.379-1.01 5.673-1.817 1.194-.808 2.289-1.514 4.479-1.514 2.289 0 3.284.707 4.479 1.514 1.294.909 2.787 1.817 5.673 1.817h.1c2.886 0 4.379-1.01 5.673-1.817.796-.505 1.592-1.009 2.488-1.312 1.792-.505 4.18-.404 5.773.707l.896.606c1.095.808 2.389 1.615 4.678 1.817.823.073 2.155-.032 2.155-1.185 0-.591-.473-1.071-1.056-1.071-.97 0-1.901-.025-2.841-.356-.765-.269-1.453-.696-2.139-1.124-.697-.505-1.393-.909-2.289-1.211-.498-.202-.896-.303-1.493-.404-.597-.101-1.194-.202-1.891-.202-1.194 0-2.488.202-3.583.707-1.194.505-2.19 1.312-3.384 1.918-1.095.505-2.19.808-3.384.808-2.289 0-3.185-.808-4.479-1.615-1.294-.909-2.787-1.716-5.673-1.716s-4.578 1.01-5.872 1.817c-.597.404-1.194.808-1.891 1.11-2.389.909-4.777.101-6.867-1.211-.796-.505-1.592-1.01-2.389-1.312-1.792-.606-3.981-.707-5.773-.303-1.393.303-2.488.909-3.682 1.615-1.294.808-2.787 1.514-4.379 1.514s-2.986-.606-4.28-1.413c-1.294-.808-2.787-1.817-5.673-1.817s-4.379.909-5.673 1.817c-1.294.808-2.389 1.514-4.678 1.514-1.194 0-2.289-.202-3.384-.707-1.194-.606-2.289-1.514-3.583-2.019-3.085-1.312-6.37-.505-9.057 1.211-.796.505-1.592 1.01-2.588 1.211-.597.202-1.194.202-1.692.303-.498 0-1.095.101-1.294.707-.1.404 0 .909.398 1.211.399.202 1.096.202 1.494.202z" fill="#FF6614" data-color="1"></path>
        <path d="M49.427 116.982c2.19-.202 3.483-1.01 4.678-1.817 1.393-1.01 2.886-1.514 4.578-1.514 2.289 0 3.384.707 4.578 1.514 1.294.808 2.787 1.817 5.673 1.817h.099c2.886 0 4.379-.909 5.673-1.817 1.294-.808 2.289-1.514 4.479-1.514 2.289 0 3.682.707 4.777 1.514 1.294.808 2.488 1.817 5.374 1.817h.1c1.692 0 3.384-.404 4.877-1.211.398-.202.697-.404.995-.606 1.194-.808 2.289-1.514 4.578-1.514s3.384.707 4.578 1.514c.299.202.597.404.995.606 1.493.808 3.284 1.211 4.976 1.211 2.886 0 4.379-1.01 5.673-1.817 1.194-.808 2.289-1.514 4.479-1.514 2.289 0 3.284.707 4.479 1.514 1.294.909 2.787 1.817 5.673 1.817h.1c2.886 0 4.379-1.01 5.673-1.817.796-.505 1.592-1.01 2.488-1.312 1.792-.505 4.18-.404 5.773.707l.896.606c1.095.808 2.389 1.615 4.678 1.817.823.073 2.155-.032 2.155-1.185 0-.591-.473-1.071-1.056-1.071-.97 0-1.901-.025-2.841-.356-.765-.269-1.453-.696-2.139-1.124-.697-.505-1.393-.909-2.289-1.211-.498-.202-.896-.303-1.493-.404-.597-.101-1.194-.202-1.891-.202-1.194 0-2.488.202-3.583.707-1.194.505-2.19 1.312-3.384 1.918-1.095.505-2.19.808-3.384.808-2.289 0-3.185-.808-4.479-1.615-1.294-.909-2.787-1.716-5.673-1.716s-4.578 1.009-5.872 1.817c-.597.404-1.194.808-1.891 1.11-2.389.909-4.777.101-6.867-1.211-.796-.505-1.592-1.009-2.389-1.312-1.792-.606-3.981-.707-5.773-.303-1.393.303-2.488.909-3.682 1.615-1.294.808-2.787 1.514-4.379 1.514s-2.986-.606-4.28-1.413c-1.294-.808-2.787-1.817-5.673-1.817s-4.379.909-5.673 1.817c-1.294.808-2.389 1.514-4.678 1.514-1.194 0-2.289-.202-3.384-.707-1.194-.606-2.289-1.514-3.583-2.019-3.085-1.312-6.37-.505-9.057 1.211-.796.505-1.592 1.009-2.588 1.211-.597.202-1.194.202-1.692.303-.498 0-1.095.101-1.294.707-.1.404 0 .909.398 1.211.399.202 1.096.202 1.494.202z" fill="#FF6614" data-color="1"></path>
    </g>
</svg>